<svg width="17" height="17" viewBox="0 0 17 17" fill="none" xmlns="http://www.w3.org/2000/svg">
<path d="M1.93182 0C0.875353 0 0 0.875353 0 1.93182V15.0682C0 16.1246 0.875353 17 1.93182 17H15.0682C16.1246 17 17 16.1246 17 15.0682V1.93182C17 0.875353 16.1246 0 15.0682 0H1.93182ZM1.93182 1.54545H15.0682C15.2885 1.54545 15.4545 1.71147 15.4545 1.93182V15.0682C15.4545 15.2885 15.2885 15.4545 15.0682 15.4545H1.93182C1.71147 15.4545 1.54545 15.2885 1.54545 15.0682V1.93182C1.54545 1.71147 1.71147 1.54545 1.93182 1.54545ZM4.2017 2.87358C3.46822 2.87358 2.87358 3.46822 2.87358 4.2017C2.87358 4.93519 3.46822 5.52983 4.2017 5.52983C4.93519 5.52983 5.52983 4.93519 5.52983 4.2017C5.52983 3.46822 4.93519 2.87358 4.2017 2.87358ZM11.1804 6.39915C10.0726 6.39915 9.33611 7.00586 9.03125 7.58239H8.98295V6.56818H6.80966V13.9091H9.07955V10.2869C9.07955 9.33008 9.26971 8.40341 10.456 8.40341C11.6241 8.40341 11.6392 9.48402 11.6392 10.3352V13.9091H13.9091V9.87642C13.9091 7.90234 13.4895 6.39915 11.1804 6.39915ZM3.09091 6.56818V13.9091H5.38494V6.56818H3.09091Z" fill="#FBFDFD"/>
</svg>
